<?xml version="1.0" encoding="UTF-8" standalone="no"?>
<svg viewBox="64 64 100.99378 56.462353" version="1.1" id="svg61" sodipodi:docname="Luke_Take_kedits1.svg"
   inkscape:version="1.2.1 (9c6d41e410, 2022-07-14)" width="100.99378" height="56.462353"
   xmlns:inkscape="http://www.inkscape.org/namespaces/inkscape"
   xmlns:sodipodi="http://sodipodi.sourceforge.net/DTD/sodipodi-0.dtd" xmlns="http://www.w3.org/2000/svg"
   xmlns:svg="http://www.w3.org/2000/svg" xmlns:bx="https://boxy-svg.com">
   <sodipodi:namedview id="namedview63" pagecolor="#ffffff" bordercolor="#666666" borderopacity="1.0"
      inkscape:showpageshadow="2" inkscape:pageopacity="0.0" inkscape:pagecheckerboard="0" inkscape:deskcolor="#d1d1d1"
      showgrid="false" inkscape:zoom="8" inkscape:cx="58.5625" inkscape:cy="24.625" inkscape:window-width="1858"
      inkscape:window-height="1057" inkscape:window-x="54" inkscape:window-y="-8" inkscape:window-maximized="1"
      inkscape:current-layer="layer2" />
   <defs id="defs7">
      <bx:grid x="0" y="0" width="2" height="2" />
      <linearGradient gradientUnits="userSpaceOnUse" x1="185.27499" y1="181.577" x2="185.27499" y2="234.151"
         id="gradient-0" gradientTransform="matrix(0.918737,0.394871,-0.364859,0.848907,18.798602,-113.36728)">
         <stop offset="0" style="stop-color: rgb(212, 212, 212);" id="stop2" />
         <stop offset="1" style="stop-color: rgb(108, 108, 108);" id="stop4" />
      </linearGradient>
   </defs>
   <g inkscape:groupmode="layer" id="layer1" inkscape:label="Original" style="display:inline"
      transform="translate(-11.525465,-33.551601)">
      <g inkscape:groupmode="layer" id="layer2" inkscape:label="Outline" transform="translate(11.525465,33.551601)">
         <path id="path846"
            style="display:inline;fill:#e1e1e1;stroke:#000000;stroke-width:0.613968;stroke-dasharray:none;stroke-opacity:1"
            d="m 210.1934,189.76809 -3.68636,0.0693 -0.0693,3.89123 c 0,0 -1.44484,0.21637 -2.38928,0.56342 -0.2245,0.0825 -0.461,0.20667 -0.68394,0.33294 -0.006,-0.63093 0.026,-1.34561 0.0252,-1.95597 l -3.08789,-0.5388 -25.53933,7.14522 c -0.20313,-0.11834 -4.07722,-2.33702 -9.80566,-2.38626 -0.84043,-0.007 -1.71911,0.0328 -2.63032,0.13408 -14.79612,1.64599 -14.06795,10.87098 1.66918,15.68244 5.73329,1.75293 6.62986,11.60772 -2.5354,8.56885 0.0482,-0.75179 -2.14761,-4.44957 -3.89429,-5.53057 -0.58609,-0.13628 -1.28058,-0.0568 -1.89858,-0.0582 l -0.54534,0.91895 -3.70443,-2.17836 c -0.53686,0.75889 -0.6042,1.06855 -1.61495,0.64326 l -2.5806,4.19705 c 0.63738,0.41424 0.58185,0.61533 0.0362,1.53661 l 3.94547,2.40434 -0.53932,0.9069 c 0.26732,0.3929 0.53434,0.85763 0.76223,1.24285 2.01406,1.46408 5.99989,1.69049 6.25942,1.70383 4.47656,1.87662 8.0837,2.32631 10.84213,1.83489 v 0.70503 c 0.86353,0.97527 1.78065,2.01109 2.61826,2.95672 l 0.89536,-0.33471 8.4659,-3.16484 c 0.5686,1.14433 1.83868,2.2838 4.64297,2.28081 3.21635,-1.23788 6.45218,-2.46297 9.67759,-3.69083 l -0.0678,-1.08467 c -0.35526,-0.0382 -0.66161,-0.0844 -1.08769,-0.13566 -0.30597,-0.0368 -0.6375,-0.0748 -0.93098,-0.11897 -0.73369,-0.0745 -1.03189,-0.74753 -1.14342,-1.395 l 11.11781,-4.15638 0.0437,-1.77463 2.88641,-2.84121 c 0.44277,0.97835 0.2758,2.57931 0.3254,3.75414 1.12557,0.81401 2.54741,1.66792 3.57784,2.49172 h 3.99217 v -4.36125 c 1.07637,-0.15026 2.13384,-0.46287 3.1395,-0.931 1.55453,0.80409 3.23911,1.44838 4.69569,2.38776 l 2.82163,-2.82163 -2.60168,-2.60169 -0.56192,-0.57397 c 0.50601,-0.70625 0.92026,-1.45959 1.24134,-2.24314 -1.65437,-0.83486 -4.11739,-1.86133 -5.05733,-2.28082 -1.28078,0.0274 -2.08914,0.005 -3.79178,0.0438 0,0 -0.98887,1.63009 -2.33052,2.10907 -0.89985,0.32125 -2.90599,0.37184 -4.02832,0.37511 -2.39692,-2.84868 -2.17557,-7.1033 0.57397,-9.67611 1.29723,-1.21391 3.00497,-1.89209 4.78156,-1.90118 2.01756,0.70912 3.89391,1.78835 5.53332,2.63935 h 4.21212 c -0.28462,-0.64757 -0.63325,-1.27351 -1.04851,-1.86954 l 3.14703,-3.14703 -2.82163,-2.82163 c -2.16426,-0.73537 -3.6505,-1.50279 -4.26194,-1.74306 -0.39631,0.40844 -0.8511,0.86883 -2.5504,2.59116 l -0.52425,-0.31787 c 0.0172,-1.24604 -0.0516,-2.49347 0.0512,-3.73609 l -0.67079,-0.29414 z m -44.20761,9.21061 c 3.83645,0.0609 5.86039,0.90683 6.14342,1.03344 l -3.58542,1.00332 -0.005,9.31003 c -1.05035,-0.59075 -2.21981,-1.08728 -3.5116,-1.45827 -14.34491,-4.11958 -9.8237,-9.06625 -2.24013,-9.76198 1.17606,-0.10789 2.24247,-0.14172 3.19825,-0.12654 z m 23.1847,26.84243 c 0.0885,0.43468 0.26636,0.91612 0.61766,1.31967 l -4.74089,1.74752 c -0.82796,0.0154 -1.30725,-0.3898 -1.57879,-0.93553 z"
            transform="matrix(1.296484,0,0,1.296484,-126.32885,-181.63172)" inkscape:label="path846"
            sodipodi:nodetypes="cccscccccccccccccccccccccccccccscccccccccccccccccsccccccccccccccccccccccccccc" />
      </g>
      <g transform="matrix(1.296484,0,0,1.296484,-114.80339,-148.08012)" style="display:inline" id="g19"
         inkscape:label="Monitor Base">
         <path style="fill:#e1e1e1"
            d="m 191.831,222.915 c 0,0 -1.581,4.146 2.379,4.099 l -0.008,0.704 c -5.723,1.557 -5.093,-3.104 -5.093,-3.104 z"
            id="path11" />
         <path style="fill:#9a9a9a"
            d="m 185.053,230.409 c -4.793,-0.405 -3.589,-4.693 -3.589,-4.693 l 1.746,-0.483 c 0,0 -0.633,3.701 1.838,3.655 l 5.995,-2.209 c -1.289,-0.443 -0.786,-2.502 -0.786,-2.502 l 1.323,-0.507 c -0.041,-0.017 -0.294,2.491 1.163,2.639 l 2.01113,0.25883 z"
            id="path13" sodipodi:nodetypes="cccccccccc" />
         <path style="fill:#e1e1e1"
            d="m 181.931,224.563 c 0,0 -2.169,5.803 3.231,5.543 l -0.011,1.234 c -5.628,0.006 -5.077,-4.591 -5.077,-4.591 z"
            id="path15" />
         <path style="display:inline;fill:#e8e8e8" d="m 185.068,230.164 9.693,-3.6 0.068,1.085 -9.672,3.682 z"
            id="path17" />
      </g>
      <g id="layer12-5" style="display:inline;opacity:1" transform="matrix(1.177508,0,0,1.177508,14.971568,-458.81232)"
         inkscape:label="Gear">
         <g id="g1254" transform="translate(1.1719138,4.3680424)">
            <g id="layer7-1" style="display:none">
               <path id="path1845-0"
                  style="opacity:0.410853;fill:#000000;fill-opacity:1;stroke-width:1.265;stroke-linecap:square;stroke-dasharray:none;paint-order:markers"
                  d="m 124.74639,472.40011 -5.34851,0.4718 v 2.89905 c -1.77979,0.37946 -3.45612,1.1404 -4.9134,2.23035 l -2.52633,-1.99121 -3.20031,2.94721 2.90926,2.02146 c -0.63055,1.25318 -1.937,4.04903 -2.12237,5.4396 l -2.88922,-0.17518 0.62941,5.50561 h 2.69648 c 0.36191,1.18313 0.8963,2.30643 1.58595,3.33364 l -3.1812,2.01487 3.61787,4.24728 2.82411,-2.94607 c 1.2193,0.84701 2.57885,1.47158 4.01578,1.84485 l -0.54725,3.14658 5.82031,0.3147 -0.12816,-3.20445 c 1.26926,-0.20253 2.49999,-0.59831 3.64939,-1.17357 l 2.14199,3.74861 3.30368,-2.51716 -2.20245,-2.67426 0.16691,-1.04851 c 4.1099,-4.23797 4.72151,-10.76316 1.47071,-15.69104 l -0.69401,-1.66553 2.20245,-1.73012 -2.35955,-3.14658 -2.59519,3.05356 c -1.44058,-0.97286 -3.06708,-1.63673 -4.77697,-1.94975 z m 2.68252,10.59315 0.0413,0.0165 -5.45549,5.06378 z" />
            </g>
            <g id="layer10-6" style="display:inline;opacity:1;fill:#d6d6d6;fill-opacity:1">
               <path
                  style="fill:#d6d6d6;fill-opacity:1;stroke-width:0.264583px;stroke-linecap:butt;stroke-linejoin:miter;stroke-opacity:1"
                  d="m 119.32662,504.20556 -3.92575,-2.56871 -0.18297,-4.30643 -3.60755,3.55137 -4.26639,-2.42413 -3.53303,-3.00683 3.45786,-3.23236 c 0,0 -2.55581,-2.25512 -1.65376,-4.05921 0.90205,-1.80411 -0.76004,1.35306 -0.76004,1.35306 l -4.20123,-2.2551 v -4.13441 l 5.03644,-0.15034 c 0,0 -0.11969,-0.8314 0.46042,-2.37728 0.46413,-1.23683 1.11817,-1.90746 1.11817,-1.90746 l -3.45786,-3.68337 2.85649,-3.082 4.73576,2.17996 0.30069,0.2255 c 0,0 0.87931,-0.62629 1.57858,-0.88325 1.03987,-0.38212 2.63098,-0.62016 2.63098,-0.62016 l 0.0752,-4.28474 4.05923,-0.0752 4.36902,1.91496 -0.32596,3.94999 0.84694,0.51327 2.8154,-2.85285 4.62261,2.02396 -0.82688,8.20694 1.36948,0.0651 -4.41781,0.16568 -8.16213,-4.01 -7.73689,5.82346 3.11179,8.11205 c 0,0 3.92842,0.0914 5.32981,-0.40889 1.47721,-0.52737 2.56582,-2.32243 2.56582,-2.32243 l 4.15059,-0.0941 5.59666,2.5633 -1.379,2.45476 3.45039,3.52411 -3.00944,2.99676 -6.01441,-2.91948 -3.19882,-2.04373 z"
                  id="path3394-8" sodipodi:nodetypes="cccccccsccccscccccsccccccccccccccsccccccccc" />
            </g>
            <g id="layer11-8"
               style="display:inline;fill:#a9a9a9;fill-opacity:1;stroke:none;stroke-width:0;stroke-dasharray:none;stroke-opacity:1">
               <path
                  style="fill:#a9a9a9;fill-opacity:1;stroke-width:0;stroke-linecap:butt;stroke-linejoin:miter;stroke-dasharray:none;stroke-opacity:1"
                  d="m 116.03507,472.9094 3.93304,2.55126 -0.0532,-5.0496 -3.88022,-1.72745 z" id="path3494-3" />
               <path
                  style="fill:#a9a9a9;fill-opacity:1;stroke-width:0;stroke-linecap:butt;stroke-linejoin:miter;stroke-dasharray:none;stroke-opacity:1"
                  d="m 103.86251,475.08858 4.53136,2.12616 3.57459,3.62774 -4.96988,-2.24574 z" id="path3496-5" />
               <path
                  style="fill:#a9a9a9;fill-opacity:1;stroke-width:0;stroke-linecap:butt;stroke-linejoin:miter;stroke-dasharray:none;stroke-opacity:1"
                  d="m 100.56697,483.11479 4.19915,2.01986 5.20907,-0.10631 -4.19915,-2.07298 z" id="path3498-6" />
               <path
                  style="fill:#a9a9a9;fill-opacity:1;stroke-width:0;stroke-linecap:butt;stroke-linejoin:miter;stroke-dasharray:none;stroke-opacity:1"
                  d="m 124.87946,474.89121 3.96533,2.42984 c 5.25988,1.13428 2.45788,-2.29262 3.59183,-3.40885 l -4.68213,-1.91469 z"
                  id="path3500-0" sodipodi:nodetypes="ccccc" />
               <path
                  style="fill:#a9a9a9;fill-opacity:1;stroke-width:0;stroke-linecap:butt;stroke-linejoin:miter;stroke-dasharray:none;stroke-opacity:1"
                  d="m 108.38058,497.89156 -4.65095,-2.44507 3.53472,-3.29554 4.62438,2.2856 z" id="path3502-3" />
               <path
                  style="display:inline;fill:#a9a9a9;fill-opacity:1;stroke-width:0;stroke-linecap:butt;stroke-linejoin:miter;stroke-dasharray:none;stroke-opacity:1"
                  d="m 121.45411,498.22621 -5.63538,-5.85231 c 0,0 4.24914,0.0282 5.07004,-0.34405 1.51858,-0.45218 2.71642,-2.37916 2.71642,-2.37916 l 5.42542,2.60874 z"
                  id="path3502-3-8" sodipodi:nodetypes="cccccc" />
               <path
                  style="fill:#a9a9a9;fill-opacity:1;stroke-width:0;stroke-linecap:butt;stroke-linejoin:miter;stroke-dasharray:none;stroke-opacity:1"
                  d="m 119.35156,504.39271 -3.99732,-2.74438 -0.0318,-1.94079 -0.10683,-2.7102 4.1679,2.54199 z"
                  id="path3504-0" sodipodi:nodetypes="cccccc" />
               <path
                  style="fill:#a9a9a9;fill-opacity:1;stroke-width:0;stroke-linecap:butt;stroke-linejoin:miter;stroke-dasharray:none;stroke-opacity:1"
                  d="m 132.32636,501.02764 -6.61764,-3.18923 3.5613,-2.28561 z" id="path3506-1" />
            </g>
            <g id="layer8-85" style="display:inline">
               <path id="path2150-0"
                  style="display:inline;opacity:1;fill:#ffffff;fill-opacity:1;stroke-width:0.0439374;stroke-linecap:square;paint-order:markers"
                  d="m 119.96634,470.41078 v 4.99298 c -1.80331,0.30729 -3.55338,1.02046 -5.1046,2.1456 l -3.43235,-3.43183 -3.10679,3.10679 3.49798,3.49746 c -1.01612,1.53662 -1.55666,2.61714 -1.80609,4.38371 l -0.094,0.0233 h -5.06119 v 4.39353 h 5.06119 l 0.0599,0.0357 c 0.25623,1.81195 0.85926,3.20852 1.93529,4.78627 l -3.48713,3.48713 3.10679,3.10679 3.46387,-3.46336 c 1.32957,0.93598 2.80757,1.57784 4.34134,1.92236 v 4.98213 h 4.39404 v -4.80126 c 1.78405,-0.24904 3.52634,-0.89319 5.08703,-1.93683 l 3.54087,3.54087 3.10679,-3.10679 -3.48868,-3.48919 c 0.55971,-0.7799 1.01678,-1.61226 1.37149,-2.47789 h -4.64622 c -0.26464,0.34635 -0.558,0.66978 -0.87695,0.96687 -3.13439,2.91709 -8.03917,2.74434 -10.96057,-0.38602 -2.92172,-3.13047 -2.75567,-8.03587 0.37103,-10.96161 1.42831,-1.33657 3.30868,-2.08393 5.2648,-2.09393 2.15715,-0.0105 4.22109,0.87748 5.0369,1.74822 0.81582,0.87074 0.93827,1.01244 1.05523,1.15858 h 4.63848 c -0.31338,-0.71301 -0.69775,-1.40305 -1.15497,-2.0593 l 3.46542,-3.46491 -3.10679,-3.1073 -3.47213,3.47214 c -1.40943,-0.97133 -2.98079,-1.61553 -4.60593,-1.92908 v -5.04104 z" />
            </g>
         </g>
      </g>
      <g id="g759" style="display:inline" inkscape:label="Monitor Top">
         <path style="fill:#eeeeee;stroke:#000000;stroke-width:0.1;stroke-dasharray:none;stroke-opacity:1"
            d="m 107.059,113.691 v 39.746 l 40.957,-15.309 0.902,-36.419 z" id="path40" />
         <path d="m 109.903,116.055 36.541,-10.34 -0.808,30.713 -35.685,13.177 z" id="path42" />
         <path style="fill:url(#gradient-0)"
            d="m 107.118,113.796 -0.033,39.632 -3.394,-3.835 0.02,-37.06 41.173,-11.519 4.093,0.687 z" id="path44" />
      </g>
      <g id="g754" inkscape:label="Cord" style="display:inline">
         <path style="fill:#323232;stroke:#000000;stroke-width:0.1;stroke-dasharray:none;stroke-opacity:1"
            d="m 111.872,110.328 c 0,0 -6.77,-4.021 -16.221,-2.97 -19.183,2.134 -18.24,14.094 2.163,20.332 8.458,2.586 8.805,18.779 -8.958,8.46 l -5.487,7.036 c 33.025,18.868 37.448,-14.252 15.783,-20.474 -18.598,-5.341 -12.735,-11.753 -2.903,-12.655 8.132,-0.746 12.203,1.215 12.203,1.215 z"
            id="path46" />
         <path style="fill:#2b2b2b"
            d="m 81.519,144.092 7.803,-12.556 c 2.561,1.421 5.996,7.518 5.048,7.439 l -4.672,7.33 c 0,0 -5.48,-0.251 -8.179,-2.213 z"
            id="path48" />
         <path style="fill:#414141" d="m 80.532,142.481 1.033,1.624 7.782,-12.562 -2.33,0.009 z" id="path50" />
      </g>
      <g style="display:inline" transform="matrix(1.432158,0,0,1.432158,-117.22676,-173.02533)" id="g56"
         inkscape:label="cordend">
         <path style="display:inline;fill:#c2c2c2"
            d="m 135.001,217.303 4.248,2.589 3.668,-5.92 -4.151,-2.441 c -0.486,0.687 -0.547,0.967 -1.462,0.582 l -2.336,3.8 c 0.577,0.375 0.527,0.556 0.033,1.39 z"
            id="path52" />
         <path style="display:inline;fill:#141414"
            d="m 139.39698,212.39341 -0.389,-0.247 c -0.4,0.658 -0.838,0.921 -1.345,0.552 l -1.919,3.233 c 0.528,0.564 0.434,0.56 0.054,1.274 l 0.373,0.293 z"
            id="path942" inkscape:label="path942" transform="translate(-0.33890465,-0.07402745)" />
      </g>
      <g aria-label="D" transform="matrix(0.890743,-0.234331,0.13399,0.66299,40.510525,39.961601)" id="text6308"
         style="font-size:36px;line-height:1.25;font-family:Consolas;letter-spacing:0px;word-spacing:0px;display:inline;opacity:1;fill:#000000;fill-opacity:1;stroke-width:0.264583"
         inkscape:label="screentext">
         <g aria-label="D" transform="matrix(0.87909852,0.53015036,-0.17884453,1.0296747,0,0)" id="text7914"
            style="font-size:30.4562px;stroke-width:0.0592239">
            <path
               d="m 95.965782,121.07037 v -4.73 l 2.855269,-1.91189 V 90.778441 l -2.855269,1.582255 v -4.598153 l 17.131608,-8.900184 v 4.268516 l 2.85527,-1.252618 v 23.386333 l -2.85527,1.84596 v 2.62033 z m 8.565808,-10.13604 5.71054,-3.82378 V 84.779057 l -5.71054,3.296365 z"
               style="font-family:'Ac437 PhoenixVGA 9x8';fill:#ffffff;fill-opacity:1;stroke-width:0px;paint-order:fill"
               id="path7920" />
         </g>
      </g>
   </g>
</svg>